<svg xmlns="http://www.w3.org/2000/svg" width="40" height="30" viewBox="0 0 43.993 35"><defs><style>.a{fill:#000;}</style></defs><path class="a" d="M23.961,49.2H48.993V38.518a7.242,7.242,0,0,0-3.786-6.358,6.713,6.713,0,0,0-3.859-10.053,6.731,6.731,0,0,0-12.839-3.767,7.166,7.166,0,0,0-3.118.023,6.73,6.73,0,0,0-12.854,2.793,6.623,6.623,0,0,0,.076.959A6.715,6.715,0,0,0,8.789,32.159,7.237,7.237,0,0,0,5,38.518V49.2Zm6.072-2.066H23.961V38.518a7.232,7.232,0,0,0-3.744-6.332,5.181,5.181,0,0,1,1.942-1.245,7.257,7.257,0,0,0,9.677,0,5.2,5.2,0,0,1,1.942,1.245,7.236,7.236,0,0,0-3.744,6.332l0,8.615Zm16.894-8.615v8.615H32.1V38.518a5.174,5.174,0,0,1,3.13-4.747,6.721,6.721,0,0,0,8.569,0,5.172,5.172,0,0,1,3.13,4.747Zm-2.748-9.939a4.667,4.667,0,1,1-4.667-4.667A4.671,4.671,0,0,1,44.179,28.579ZM34.722,16.266a4.671,4.671,0,0,1,4.667,4.667,4.721,4.721,0,0,1-.092.922,6.714,6.714,0,0,0-5.081,2.578,7.322,7.322,0,0,0-3.762-5.383,4.673,4.673,0,0,1,4.268-2.784ZM27,20.247a5.238,5.238,0,1,1-5.238,5.238A5.245,5.245,0,0,1,27,20.247Zm-7.726-3.758A4.668,4.668,0,0,1,23.454,19.1a7.315,7.315,0,0,0-3.678,5.333,6.714,6.714,0,0,0-5.115-2.58,4.638,4.638,0,0,1,4.609-5.365ZM14.48,23.913A4.667,4.667,0,1,1,9.813,28.58a4.671,4.671,0,0,1,4.667-4.667ZM7.066,38.518a5.174,5.174,0,0,1,3.13-4.747,6.721,6.721,0,0,0,8.569,0,5.172,5.172,0,0,1,3.13,4.747v8.615H7.065Z" transform="translate(-5 -14.199)"/></svg>