<svg xmlns="http://www.w3.org/2000/svg" width="32.802" height="40" viewBox="0 0 32.802 40"><defs><style>.a{fill:#fff;}</style></defs><path class="a" d="M39.346,15.177a8.986,8.986,0,0,0-5.066,1.379V9.532h-1.51v3.111l-.755.755,0-6.089H30.5v7.644l-.755.755V5h-1.51V15.666l-.755-.755,0-7.6h-1.51v6.134l-.755-.755V9.577H23.7v5.068l0,1.021v4.445c-1.2-2.267-2.222-4.089-2.49-4.533l-.622-1.111-.667,1.066c-.267.444-6.622,10.622-6.622,15.289a7.2,7.2,0,0,0,7.111,7.288v1.955l.4.222,7.867,4.49.4.222L37.7,40.065V38.686a11.589,11.589,0,0,0,1.778.134c3.689,0,6.622-1.689,6.622-3.867l0-15.909c-.134-2.134-3.023-3.868-6.757-3.868Zm-9.6,27.647v-7.29l6.311-3.6v7.245Zm-.755-8.579-6.311-3.6,6.311-3.6,6.311,3.6Zm3.778-7.957L32.057,27l-1.51-.844,2.222-2.222Zm-3.023-8.445,3.023-3.023v2.356L29.746,20.2Zm0,6.046v-1.51l3.023-3.023v2.356l-3.023,3.023Zm-4.533-9.066,3.023,3.023V20.2l-3.023-3.023Zm0,4.533,3.023,3.023v2.354L25.213,21.71Zm2.222,6.8-.755.444c-.267-.667-.533-1.379-.844-2.045Zm-12.667,4.71c0-1.733,1.111-4.755,3.156-8.756.977-1.866,1.955-3.556,2.578-4.622a88.584,88.584,0,0,1,4.844,9.867L22.457,29l-1.689.977-.4.222v6.445a5.759,5.759,0,0,1-5.6-5.778Zm7.111,1.068,6.311,3.6v7.245l-6.311-3.6ZM44.457,35c0,1.111-2.089,2.356-5.066,2.356a7.615,7.615,0,0,1-1.778-.177V33.4a11.588,11.588,0,0,0,1.778.134,8.986,8.986,0,0,0,5.066-1.379Zm0-5.334c0,1.111-2.089,2.356-5.066,2.356a7.615,7.615,0,0,1-1.778-.177V30.157l-.4-.222-2.578-1.467-.356-.177V26.869a9.005,9.005,0,0,0,5.066,1.379,8.986,8.986,0,0,0,5.066-1.379l0,2.8Zm0-5.288c0,1.111-2.089,2.356-5.066,2.356s-5.066-1.245-5.066-2.356v-2.8a9.005,9.005,0,0,0,5.066,1.379,8.986,8.986,0,0,0,5.066-1.379ZM39.346,21.4c-2.978,0-5.066-1.245-5.066-2.356s2.089-2.356,5.066-2.356,5.066,1.245,5.066,2.356S42.368,21.4,39.346,21.4Z" transform="translate(-13.301 -4.999)"/></svg>