<svg xmlns="http://www.w3.org/2000/svg" width="25" height="25" viewBox="0 0 25 25"><path d="M12.5,25A12.5,12.5,0,1,1,25,12.5,12.514,12.514,0,0,1,12.5,25Zm0-23.958A11.458,11.458,0,1,0,23.958,12.5,11.472,11.472,0,0,0,12.5,1.042Z"/><path d="M31.61,33.782a.513.513,0,0,1-.209-.045c-.151-.068-.307-.129-.465-.185l-2.073-.72c-.372-.129-2.633-1.223-3.084-1.441a.509.509,0,0,1-.177-.776,13.581,13.581,0,0,0,2-3.642.51.51,0,0,1,.847-.193.256.256,0,0,0,.1.076c.121,0,.5-.544.5-1.528,0-1.037-.394-1.528-.49-1.528a.528.528,0,0,1-.529-.484c-.181-3.577-1.852-5.63-4.589-5.63s-4.39,2.052-4.57,5.63a.51.51,0,0,1-.509.484c-.147,0-.53.543-.53,1.528s.382,1.528.509,1.528a.355.355,0,0,0,.1-.075.51.51,0,0,1,.847.193,12.234,12.234,0,0,0,2,3.632.507.507,0,0,1,.109.432.513.513,0,0,1-.272.352c-.44.218-2.648,1.313-3.023,1.442l-2.074.72q-.235.083-.462.183a.51.51,0,1,1-.418-.929c.178-.079.358-.152.546-.216l2.073-.72c.2-.071,1.379-.641,2.343-1.117a13.535,13.535,0,0,1-1.579-2.895.983.983,0,0,1-.182.016c-.872,0-1.529-1.1-1.529-2.548a2.669,2.669,0,0,1,1.064-2.436c.312-3.907,2.372-6.225,5.563-6.225s5.272,2.319,5.583,6.228a2.646,2.646,0,0,1,1.044,2.433c0,1.452-.658,2.548-1.529,2.548a.965.965,0,0,1-.186-.018,15.182,15.182,0,0,1-1.585,2.885c.992.477,2.214,1.057,2.417,1.127l2.073.72q.281.1.549.218a.509.509,0,0,1-.209.973Z" transform="translate(-10.952 -12.289)"/></svg>