<svg xmlns="http://www.w3.org/2000/svg" width="37.576" height="35" viewBox="0 0 37.576 35"><defs><style>.a{fill:#fff;}</style></defs><g transform="translate(-14.252 -10.959)"><path class="a" d="M51.477,25.439l-6.324-5.058V13.148a.945.945,0,0,0-.945-.945H39.66a.945.945,0,0,0-.945.945v2.085l-5.082-4.066a.944.944,0,0,0-1.182,0L14.605,25.439a.945.945,0,0,0-.146,1.328l3.172,3.966a.945.945,0,0,0,1.328.146l.685-.548V45.014a.945.945,0,0,0,.945.945h24.9a.945.945,0,0,0,.945-.945l0-14.682.685.548a.956.956,0,0,0,.591.209h.1a.945.945,0,0,0,.633-.349l3.172-3.97a.947.947,0,0,0-.14-1.331ZM40.6,14.094h2.657v4.775l-2.406-1.924-.251-.2ZM25.478,44.069V32.033h5.27V44.069ZM44.542,28.8V44.069h-11.9V31.087a.945.945,0,0,0-.945-.945H24.533a.945.945,0,0,0-.945.945V44.069H21.541V28.818l11.5-9.2Zm3.021,0L33.632,17.666a.944.944,0,0,0-1.182,0L18.52,28.814l-1.991-2.491L33.041,13.115l6.021,4.821.945.77,9.545,7.615Z" transform="translate(0)"/><path class="a" d="M57.207,59.656H63.7a.945.945,0,0,0,.945-.945V52.484a.945.945,0,0,0-.945-.945H57.207a.945.945,0,0,0-.945.945v6.227A.946.946,0,0,0,57.207,59.656Zm.945-6.227h4.6v4.336h-4.6Z" transform="translate(-22.151 -21.397)"/></g></svg>