<svg xmlns="http://www.w3.org/2000/svg" width="23" height="22.999" viewBox="0 0 23 22.999"><defs><style>.a{fill:#2478d8;}</style></defs><path class="a" d="M16.5,4.8A11.5,11.5,0,0,0,5,16.2V27.8H16.806a11.5,11.5,0,0,0-.306-23Zm-.92,5.878a1.472,1.472,0,0,1,.971-.306,1.521,1.521,0,0,1,.971.306,1.071,1.071,0,0,1,.383.868,1.022,1.022,0,0,1-.383.844,1.472,1.472,0,0,1-.971.306,1.521,1.521,0,0,1-.971-.306,1.021,1.021,0,0,1-.383-.844A1.071,1.071,0,0,1,15.58,10.679Zm3.169,11.346H14.4v-.588a3.932,3.932,0,0,1,.485-.2c.179-.051.357-.1.562-.179V15.228L14.4,15.1v-.588a5.59,5.59,0,0,1,.588-.179,6.424,6.424,0,0,1,.741-.154c.256-.051.511-.077.767-.128.256-.026.485-.077.665-.077H17.7v7.1c.2.051.409.1.562.154a2.723,2.723,0,0,1,.485.2Z" transform="translate(-5 -4.801)"/></svg>