<svg xmlns="http://www.w3.org/2000/svg" width="32.253" height="35" viewBox="0 0 32.253 35"><defs><style>.a{fill:#000;}</style></defs><path class="a" d="M52.764,19.094V30.266a7.832,7.832,0,0,1-3.828,6.688V49.029a3.97,3.97,0,1,1-7.94,0V36.955a7.83,7.83,0,0,1-3.828-6.688V19.094a1.094,1.094,0,1,1,2.188,0V30.266a5.634,5.634,0,0,0,3.189,5.048,1.09,1.09,0,0,1,.656.985v12.73a1.783,1.783,0,1,0,3.565,0V36.3a1.1,1.1,0,0,1,.624-.985,5.632,5.632,0,0,0,3.187-5.048V19.094a1.094,1.094,0,0,1,2.188,0ZM42.654,31.851a1.09,1.09,0,0,0,1.094-1.094V19.094a1.094,1.094,0,1,0-2.188,0V30.757a1.09,1.09,0,0,0,1.094,1.094Zm4.375,0a1.09,1.09,0,0,0,1.094-1.094V19.094a1.094,1.094,0,1,0-2.187,0V30.757a1.09,1.09,0,0,0,1.094,1.094ZM34.45,26.109v9.2A1.094,1.094,0,0,1,33.357,36.4H28.435V49.029A3.976,3.976,0,0,1,24.476,53h-.385a4.072,4.072,0,0,1-3.58-4.08V19.094A1.093,1.093,0,0,1,21.605,18h5.9a8.156,8.156,0,0,1,6.941,8.109Zm-2.188,0a5.972,5.972,0,0,0-4.992-5.922H22.7V48.9a1.864,1.864,0,0,0,1.6,1.908,1.784,1.784,0,0,0,1.946-1.784V35.308a1.094,1.094,0,0,1,1.094-1.094h4.922Z" transform="translate(-20.511 -18)"/></svg>