<svg xmlns="http://www.w3.org/2000/svg" width="219" height="70.965"><g data-name="Group 12875"><path d="M129.203 27.674c-1.504 0-2.828.229-3.97.687-1.133.46-2.085 1.118-2.856 1.977-.772.86-1.354 1.904-1.744 3.135-.39 1.22-.586 2.597-.586 4.13 0 1.67.182 3.116.543 4.337.37 1.22.922 2.228 1.654 3.02.733.79 1.647 1.38 2.74 1.77 1.104.381 2.393.57 3.868.57 1.494 0 2.806-.222 3.939-.67 1.143-.46 2.1-1.12 2.871-1.98.772-.869 1.354-1.923 1.744-3.164.39-1.24.586-2.646.586-4.218 0-1.64-.191-3.063-.572-4.264-.371-1.21-.928-2.21-1.67-3.002-.732-.79-1.65-1.377-2.754-1.758-1.094-.38-2.357-.57-3.793-.57zm23.264 0c-.87 0-1.696.111-2.477.336a5.812 5.812 0 00-2.021 1.025 4.936 4.936 0 00-1.362 1.715c-.332.684-.498 1.479-.498 2.387 0 .79.118 1.47.352 2.037a5.23 5.23 0 00.908 1.479c.381.41.81.765 1.29 1.068.478.293.97.557 1.478.79.508.235 1.002.46 1.48.675.479.205.903.43 1.274.674.38.234.69.507.923.82.235.303.352.67.352 1.1 0 .37-.068.706-.205 1.01a1.99 1.99 0 01-.602.76 2.834 2.834 0 01-.937.485c-.371.108-.791.16-1.26.16-.713 0-1.342-.078-1.889-.234a9.237 9.237 0 01-1.392-.54c-.39-.196-.713-.372-.967-.528-.244-.166-.434-.25-.57-.25a.43.43 0 00-.264.09.557.557 0 00-.176.261c-.039.127-.068.293-.088.498-.02.205-.029.461-.029.764 0 .45.024.795.072 1.04.059.233.153.413.28.54.127.127.332.275.615.442.293.166.654.326 1.084.482.43.146.922.273 1.478.38.567.108 1.178.16 1.832.16a9.47 9.47 0 002.725-.378 6.652 6.652 0 002.227-1.129 5.5 5.5 0 001.507-1.889c.372-.751.557-1.626.557-2.623 0-.761-.117-1.42-.351-1.976a4.865 4.865 0 00-.922-1.467 5.732 5.732 0 00-1.305-1.068 13.854 13.854 0 00-1.494-.807 46.917 46.917 0 00-1.494-.658 11.81 11.81 0 01-1.319-.674 3.616 3.616 0 01-.922-.82 1.836 1.836 0 01-.337-1.1c0-.283.048-.55.146-.805.107-.253.264-.468.469-.644.215-.186.478-.328.79-.426a3.39 3.39 0 011.1-.16c.538 0 1.03.068 1.479.205.45.127.846.273 1.187.44.342.156.63.302.864.439.234.137.406.205.513.205.108 0 .19-.03.248-.088a.507.507 0 00.147-.28c.039-.126.064-.286.074-.482.02-.195.03-.435.03-.718 0-.254-.006-.463-.016-.63a2.106 2.106 0 00-.059-.423.856.856 0 00-.277-.527c-.098-.098-.299-.221-.602-.368a7.017 7.017 0 00-1.039-.396 9.205 9.205 0 00-1.26-.277 8.944 8.944 0 00-1.347-.102zm19.879 0a8.91 8.91 0 00-2.475.336 5.812 5.812 0 00-2.021 1.025 4.941 4.941 0 00-1.364 1.715c-.332.684-.498 1.479-.498 2.387 0 .79.117 1.47.352 2.037a5.23 5.23 0 00.908 1.479c.38.41.81.765 1.29 1.068.478.293.972.557 1.48.79.507.235 1 .46 1.478.675.479.205.904.43 1.275.674.381.234.688.507.922.82.235.303.352.67.352 1.1 0 .37-.068.706-.205 1.01a1.986 1.986 0 01-.6.76 2.834 2.834 0 01-.937.485c-.371.108-.791.16-1.26.16-.713 0-1.344-.078-1.89-.234-.538-.166-1-.346-1.391-.54-.39-.196-.713-.372-.967-.528-.244-.166-.436-.25-.572-.25a.43.43 0 00-.264.09.557.557 0 00-.176.261c-.039.127-.068.293-.088.498-.02.205-.029.461-.029.764 0 .45.025.795.074 1.04.059.233.15.413.278.54.127.127.332.275.615.442.293.166.654.326 1.084.482.43.146.924.273 1.48.38.567.108 1.176.16 1.83.16a9.47 9.47 0 002.725-.378 6.652 6.652 0 002.227-1.129 5.504 5.504 0 001.51-1.889c.37-.751.556-1.626.556-2.623 0-.761-.117-1.42-.352-1.976a4.87 4.87 0 00-.923-1.467 5.721 5.721 0 00-1.303-1.068 13.854 13.854 0 00-1.494-.807 46.917 46.917 0 00-1.494-.658 11.81 11.81 0 01-1.319-.674 3.626 3.626 0 01-.924-.82 1.835 1.835 0 01-.336-1.1c0-.283.05-.55.147-.805.107-.253.264-.468.469-.644.214-.186.478-.328.79-.426.313-.107.678-.16 1.098-.16a5.07 5.07 0 011.48.205c.45.127.845.273 1.186.44.342.156.631.302.866.439.234.137.404.205.511.205.108 0 .192-.03.25-.088a.507.507 0 00.147-.28c.039-.126.062-.286.072-.482.02-.195.03-.435.03-.718 0-.254-.005-.463-.014-.63a2.12 2.12 0 00-.059-.423.854.854 0 00-.28-.527c-.097-.098-.296-.221-.599-.368a7.046 7.046 0 00-1.04-.396 9.205 9.205 0 00-1.26-.277 8.944 8.944 0 00-1.348-.102zm-87.399.03c-1.299 0-2.492.218-3.576.657a7.551 7.551 0 00-2.767 1.934c-.772.85-1.374 1.899-1.803 3.149-.43 1.25-.643 2.681-.643 4.292 0 1.583.196 2.97.586 4.16.39 1.192.951 2.188 1.684 2.989a6.981 6.981 0 002.666 1.787c1.045.4 2.217.602 3.515.602.664 0 1.28-.055 1.846-.163.576-.107 1.084-.24 1.524-.396a7.32 7.32 0 001.126-.512c.313-.175.524-.316.631-.424.108-.117.186-.22.235-.308.049-.088.088-.19.117-.307.03-.127.049-.273.058-.44a9.316 9.316 0 000-1.467 2.317 2.317 0 00-.087-.497c-.04-.117-.088-.195-.147-.234a.417.417 0 00-.234-.059c-.127 0-.309.078-.543.234a9.415 9.415 0 01-.88.528 7.55 7.55 0 01-1.273.543c-.498.156-1.09.234-1.773.234-.752 0-1.43-.127-2.035-.38a4.119 4.119 0 01-1.54-1.188c-.42-.528-.745-1.196-.98-2.006-.224-.82-.338-1.787-.338-2.9 0-1.016.108-1.93.323-2.74.215-.811.527-1.499.937-2.065a4.306 4.306 0 011.51-1.319c.596-.312 1.27-.468 2.021-.468.684 0 1.27.087 1.758.263a6.21 6.21 0 011.274.57c.361.206.654.397.879.573.224.166.41.248.556.248a.35.35 0 00.235-.088.68.68 0 00.175-.277c.05-.127.084-.293.104-.498.02-.205.03-.454.03-.746 0-.274-.01-.504-.03-.69a3.107 3.107 0 00-.059-.482 1.236 1.236 0 00-.117-.338 1.458 1.458 0 00-.28-.323c-.126-.136-.355-.296-.687-.482a6.31 6.31 0 00-1.127-.484 8.587 8.587 0 00-2.871-.482zm14.84.306c-.322 0-.596.098-.82.293-.215.185-.322.492-.322.922v17.213c0 .097.029.185.087.263.059.078.16.141.307.19.147.049.342.088.586.117.254.03.566.045.937.045.381 0 .694-.016.938-.045.244-.03.44-.068.586-.117.146-.049.25-.112.309-.19a.389.389 0 00.101-.263v-7.221h1.201c.41 0 .772.062 1.084.19.313.126.586.316.82.57.245.244.465.552.66.924.196.37.395.794.6 1.273l1.7 4.234c.039.118.087.22.146.307a.706.706 0 00.293.207c.146.049.342.082.586.102.244.02.572.029.982.029.489 0 .873-.01 1.157-.03.283-.019.498-.052.644-.101.147-.049.24-.107.28-.176a.62.62 0 00.058-.279c0-.098-.025-.229-.074-.395a9.293 9.293 0 00-.293-.82l-1.596-3.736c-.185-.45-.377-.85-.572-1.201a5.95 5.95 0 00-.629-.952 3.784 3.784 0 00-.703-.718 4.15 4.15 0 00-.791-.498 6.257 6.257 0 001.566-.733 4.674 4.674 0 001.158-1.068c.313-.41.547-.875.704-1.393a5.777 5.777 0 00.248-1.742c0-.752-.112-1.416-.336-1.992a4.17 4.17 0 00-.983-1.51 4.761 4.761 0 00-1.552-1.039 7.875 7.875 0 00-2.051-.557c-.264-.029-.557-.054-.88-.074a21.06 21.06 0 00-1.23-.03zm102.81 0c-.322 0-.595.098-.82.293-.215.185-.322.492-.322.922V45.75c0 .43.107.742.322.938.225.185.498.277.82.277h4.528c1.68 0 3.125-.182 4.336-.543 1.22-.371 2.256-.945 3.105-1.727.85-.78 1.498-1.787 1.948-3.017.459-1.24.69-2.73.69-4.469 0-1.504-.212-2.828-.632-3.97-.42-1.143-1.035-2.1-1.845-2.872-.801-.78-1.791-1.365-2.973-1.756-1.172-.4-2.604-.601-4.293-.601zm-73.527 2.826c.938 0 1.72.162 2.344.484a3.687 3.687 0 011.494 1.348c.381.576.65 1.276.807 2.096.156.81.234 1.713.234 2.709 0 .908-.084 1.767-.25 2.578-.156.8-.43 1.504-.82 2.11a4.253 4.253 0 01-1.537 1.435c-.635.351-1.426.527-2.373.527-.948 0-1.735-.15-2.36-.453a3.692 3.692 0 01-1.494-1.35c-.37-.585-.635-1.289-.79-2.109-.157-.83-.235-1.762-.235-2.797 0-.888.078-1.728.234-2.52.166-.8.446-1.497.836-2.093a4.3 4.3 0 011.537-1.422c.635-.361 1.426-.543 2.373-.543zm-26.574.117h1.729c.44 0 .78.016 1.025.045.254.03.479.069.674.117.644.176 1.11.479 1.392.909.284.43.424.957.424 1.582 0 .41-.068.78-.205 1.113-.137.332-.342.619-.615.863-.274.235-.615.42-1.025.557-.41.127-.89.191-1.436.191h-1.963zm102.797.075h1.95c1.18 0 2.132.16 2.855.482.732.312 1.328.754 1.787 1.32a5.192 5.192 0 011.011 2.006c.215.772.323 1.608.323 2.506 0 1.094-.123 2.049-.367 2.87-.235.82-.596 1.509-1.084 2.066a4.43 4.43 0 01-1.801 1.23c-.723.273-1.612.41-2.666.41h-2.008zm-19.234 7.074a.547.547 0 00-.528.338c-.107.224-.16.609-.16 1.156 0 .557.053.953.16 1.187a.545.545 0 00.528.336h6.093c.235 0 .407-.111.514-.336.107-.224.16-.62.16-1.187 0-.274-.014-.508-.043-.703a1.365 1.365 0 00-.117-.469.556.556 0 00-.22-.248.543.543 0 00-.294-.074z" aria-label="CROSS-D" font-weight="700" font-size="30" font-family="Calibri-Bold,Calibri" letter-spacing=".19em" fill="#fff"/><g data-name="Group 12868"><path data-name="Subtraction 4" d="M8.984 46.937a18.167 18.167 0 01-3.188-2.851 21.456 21.456 0 01-4.346-7.964A36.733 36.733 0 01.001 25.336a30.433 30.433 0 012.813-13.442 20.171 20.171 0 018.137-8.827 24.721 24.721 0 0112.5-3.066 31.9 31.9 0 0112.284 2.406 16.384 16.384 0 013.824 1.957l-5.365 5.365a43.564 43.564 0 00-4.965-1.928 19.068 19.068 0 00-5.845-.894 15 15 0 00-6.2 1.23 12.816 12.816 0 00-4.717 3.69 16.7 16.7 0 00-2.982 5.854 27.63 27.63 0 00-.994 7.724 29.9 29.9 0 00.956 7.96 15.533 15.533 0 002.868 5.753 12.14 12.14 0 002.317 2.173l-5.647 5.647z" fill="#fff"/><path data-name="Line 10" fill="none" stroke="#fff" stroke-width="2" d="M5.5 54.465l44-44"/><path data-name="Subtraction 5" d="M34 70.965H20V56.053l8.16-8.16v16.432h4.88c5.635 0 9.979-1.679 12.91-4.99 2.953-3.336 4.45-8.305 4.45-14.77 0-10.673-4.069-17-12.1-18.817l5.645-5.644a20.025 20.025 0 0111.019 8.587c2.542 4.138 3.831 9.479 3.831 15.875a35.611 35.611 0 01-1.67 11.314 22.122 22.122 0 01-4.85 8.276 20.5 20.5 0 01-7.79 5.081A29.947 29.947 0 0134 70.965z" fill="#fff"/></g></g></svg>